<svg width="2624" height="320" viewBox="0 0 2624 320" fill="none" xmlns="http://www.w3.org/2000/svg">
<rect width="64" height="224" transform="matrix(-1 0 0 1 2624 96)" fill="url(#paint0_linear_261_190)"/>
<rect width="64" height="224" transform="matrix(-1 0 0 1 2240 96)" fill="url(#paint1_linear_261_190)"/>
<rect width="64" height="224" transform="matrix(-1 0 0 1 1856 96)" fill="url(#paint2_linear_261_190)"/>
<rect width="64" height="224" transform="matrix(-1 0 0 1 1472 96)" fill="url(#paint3_linear_261_190)"/>
<rect width="64" height="224" transform="matrix(-1 0 0 1 1088 96)" fill="url(#paint4_linear_261_190)"/>
<rect width="64" height="224" transform="matrix(-1 0 0 1 704 96)" fill="url(#paint5_linear_261_190)"/>
<rect width="64" height="224" transform="matrix(-1 0 0 1 320 96)" fill="url(#paint6_linear_261_190)"/>
<rect x="2240" y="64" width="64" height="256" fill="url(#paint7_linear_261_190)"/>
<rect x="1856" y="64" width="64" height="256" fill="url(#paint8_linear_261_190)"/>
<rect x="1472" y="64" width="64" height="256" fill="url(#paint9_linear_261_190)"/>
<rect x="1088" y="64" width="64" height="256" fill="url(#paint10_linear_261_190)"/>
<rect x="704" y="64" width="64" height="256" fill="url(#paint11_linear_261_190)"/>
<rect x="320" y="64" width="64" height="256" fill="url(#paint12_linear_261_190)"/>
<rect width="64" height="256" transform="matrix(-1 0 0 1 2560 64)" fill="url(#paint13_linear_261_190)"/>
<rect width="64" height="256" transform="matrix(-1 0 0 1 2176 64)" fill="url(#paint14_linear_261_190)"/>
<rect width="64" height="256" transform="matrix(-1 0 0 1 1792 64)" fill="url(#paint15_linear_261_190)"/>
<rect width="64" height="256" transform="matrix(-1 0 0 1 1408 64)" fill="url(#paint16_linear_261_190)"/>
<rect width="64" height="256" transform="matrix(-1 0 0 1 1024 64)" fill="url(#paint17_linear_261_190)"/>
<rect width="64" height="256" transform="matrix(-1 0 0 1 640 64)" fill="url(#paint18_linear_261_190)"/>
<rect width="64" height="256" transform="matrix(-1 0 0 1 256 64)" fill="url(#paint19_linear_261_190)"/>
<rect x="2304" y="32" width="64" height="288" fill="url(#paint20_linear_261_190)"/>
<rect x="1920" y="32" width="64" height="288" fill="url(#paint21_linear_261_190)"/>
<rect x="1536" y="32" width="64" height="288" fill="url(#paint22_linear_261_190)"/>
<rect x="1152" y="32" width="64" height="288" fill="url(#paint23_linear_261_190)"/>
<rect x="768" y="32" width="64" height="288" fill="url(#paint24_linear_261_190)"/>
<rect x="384" y="32" width="64" height="288" fill="url(#paint25_linear_261_190)"/>
<rect y="32" width="64" height="288" fill="url(#paint26_linear_261_190)"/>
<rect width="64" height="288" transform="matrix(-1 0 0 1 2496 32)" fill="url(#paint27_linear_261_190)"/>
<rect width="64" height="288" transform="matrix(-1 0 0 1 2112 32)" fill="url(#paint28_linear_261_190)"/>
<rect width="64" height="288" transform="matrix(-1 0 0 1 1728 32)" fill="url(#paint29_linear_261_190)"/>
<rect width="64" height="288" transform="matrix(-1 0 0 1 1344 32)" fill="url(#paint30_linear_261_190)"/>
<rect width="64" height="288" transform="matrix(-1 0 0 1 960 32)" fill="url(#paint31_linear_261_190)"/>
<rect width="64" height="288" transform="matrix(-1 0 0 1 576 32)" fill="url(#paint32_linear_261_190)"/>
<rect width="64" height="288" transform="matrix(-1 0 0 1 192 32)" fill="url(#paint33_linear_261_190)"/>
<rect x="2368" width="64" height="320" fill="url(#paint34_linear_261_190)"/>
<rect x="1984" width="64" height="320" fill="url(#paint35_linear_261_190)"/>
<rect x="1600" width="64" height="320" fill="url(#paint36_linear_261_190)"/>
<rect x="1216" width="64" height="320" fill="url(#paint37_linear_261_190)"/>
<rect x="832" width="64" height="320" fill="url(#paint38_linear_261_190)"/>
<rect x="448" width="64" height="320" fill="url(#paint39_linear_261_190)"/>
<rect x="64" width="64" height="320" fill="url(#paint40_linear_261_190)"/>
<defs>
<linearGradient id="paint0_linear_261_190" x1="32" y1="224" x2="32" y2="-2.16375e-06" gradientUnits="userSpaceOnUse">
<stop stop-color="#8A11C6"/>
<stop offset="0.549268" stop-color="#3CA798"/>
<stop offset="1" stop-color="#3CA798" stop-opacity="0"/>
</linearGradient>
<linearGradient id="paint1_linear_261_190" x1="32" y1="224" x2="32" y2="-2.16375e-06" gradientUnits="userSpaceOnUse">
<stop stop-color="#8A11C6"/>
<stop offset="0.549268" stop-color="#3CA798"/>
<stop offset="1" stop-color="#3CA798" stop-opacity="0"/>
</linearGradient>
<linearGradient id="paint2_linear_261_190" x1="32" y1="224" x2="32" y2="-2.16375e-06" gradientUnits="userSpaceOnUse">
<stop stop-color="#8A11C6"/>
<stop offset="0.549268" stop-color="#3CA798"/>
<stop offset="1" stop-color="#3CA798" stop-opacity="0"/>
</linearGradient>
<linearGradient id="paint3_linear_261_190" x1="32" y1="224" x2="32" y2="-2.16375e-06" gradientUnits="userSpaceOnUse">
<stop stop-color="#8A11C6"/>
<stop offset="0.549268" stop-color="#3CA798"/>
<stop offset="1" stop-color="#3CA798" stop-opacity="0"/>
</linearGradient>
<linearGradient id="paint4_linear_261_190" x1="32" y1="224" x2="32" y2="-2.16375e-06" gradientUnits="userSpaceOnUse">
<stop stop-color="#8A11C6"/>
<stop offset="0.549268" stop-color="#3CA798"/>
<stop offset="1" stop-color="#3CA798" stop-opacity="0"/>
</linearGradient>
<linearGradient id="paint5_linear_261_190" x1="32" y1="224" x2="32" y2="-2.16375e-06" gradientUnits="userSpaceOnUse">
<stop stop-color="#8A11C6"/>
<stop offset="0.549268" stop-color="#3CA798"/>
<stop offset="1" stop-color="#3CA798" stop-opacity="0"/>
</linearGradient>
<linearGradient id="paint6_linear_261_190" x1="32" y1="224" x2="32" y2="-2.16375e-06" gradientUnits="userSpaceOnUse">
<stop stop-color="#8A11C6"/>
<stop offset="0.549268" stop-color="#3CA798"/>
<stop offset="1" stop-color="#3CA798" stop-opacity="0"/>
</linearGradient>
<linearGradient id="paint7_linear_261_190" x1="2272" y1="320" x2="2272" y2="64" gradientUnits="userSpaceOnUse">
<stop stop-color="#8A11C6"/>
<stop offset="0.549268" stop-color="#3CA798"/>
<stop offset="1" stop-color="#3CA798" stop-opacity="0"/>
</linearGradient>
<linearGradient id="paint8_linear_261_190" x1="1888" y1="320" x2="1888" y2="64" gradientUnits="userSpaceOnUse">
<stop stop-color="#8A11C6"/>
<stop offset="0.549268" stop-color="#3CA798"/>
<stop offset="1" stop-color="#3CA798" stop-opacity="0"/>
</linearGradient>
<linearGradient id="paint9_linear_261_190" x1="1504" y1="320" x2="1504" y2="64" gradientUnits="userSpaceOnUse">
<stop stop-color="#8A11C6"/>
<stop offset="0.549268" stop-color="#3CA798"/>
<stop offset="1" stop-color="#3CA798" stop-opacity="0"/>
</linearGradient>
<linearGradient id="paint10_linear_261_190" x1="1120" y1="320" x2="1120" y2="64" gradientUnits="userSpaceOnUse">
<stop stop-color="#8A11C6"/>
<stop offset="0.549268" stop-color="#3CA798"/>
<stop offset="1" stop-color="#3CA798" stop-opacity="0"/>
</linearGradient>
<linearGradient id="paint11_linear_261_190" x1="736" y1="320" x2="736" y2="64" gradientUnits="userSpaceOnUse">
<stop stop-color="#8A11C6"/>
<stop offset="0.549268" stop-color="#3CA798"/>
<stop offset="1" stop-color="#3CA798" stop-opacity="0"/>
</linearGradient>
<linearGradient id="paint12_linear_261_190" x1="352" y1="320" x2="352" y2="64" gradientUnits="userSpaceOnUse">
<stop stop-color="#8A11C6"/>
<stop offset="0.549268" stop-color="#3CA798"/>
<stop offset="1" stop-color="#3CA798" stop-opacity="0"/>
</linearGradient>
<linearGradient id="paint13_linear_261_190" x1="32" y1="256" x2="32" y2="-2.47285e-06" gradientUnits="userSpaceOnUse">
<stop stop-color="#8A11C6"/>
<stop offset="0.549268" stop-color="#3CA798"/>
<stop offset="1" stop-color="#3CA798" stop-opacity="0"/>
</linearGradient>
<linearGradient id="paint14_linear_261_190" x1="32" y1="256" x2="32" y2="-2.47285e-06" gradientUnits="userSpaceOnUse">
<stop stop-color="#8A11C6"/>
<stop offset="0.549268" stop-color="#3CA798"/>
<stop offset="1" stop-color="#3CA798" stop-opacity="0"/>
</linearGradient>
<linearGradient id="paint15_linear_261_190" x1="32" y1="256" x2="32" y2="-2.47285e-06" gradientUnits="userSpaceOnUse">
<stop stop-color="#8A11C6"/>
<stop offset="0.549268" stop-color="#3CA798"/>
<stop offset="1" stop-color="#3CA798" stop-opacity="0"/>
</linearGradient>
<linearGradient id="paint16_linear_261_190" x1="32" y1="256" x2="32" y2="-2.47285e-06" gradientUnits="userSpaceOnUse">
<stop stop-color="#8A11C6"/>
<stop offset="0.549268" stop-color="#3CA798"/>
<stop offset="1" stop-color="#3CA798" stop-opacity="0"/>
</linearGradient>
<linearGradient id="paint17_linear_261_190" x1="32" y1="256" x2="32" y2="-2.47285e-06" gradientUnits="userSpaceOnUse">
<stop stop-color="#8A11C6"/>
<stop offset="0.549268" stop-color="#3CA798"/>
<stop offset="1" stop-color="#3CA798" stop-opacity="0"/>
</linearGradient>
<linearGradient id="paint18_linear_261_190" x1="32" y1="256" x2="32" y2="-2.47285e-06" gradientUnits="userSpaceOnUse">
<stop stop-color="#8A11C6"/>
<stop offset="0.549268" stop-color="#3CA798"/>
<stop offset="1" stop-color="#3CA798" stop-opacity="0"/>
</linearGradient>
<linearGradient id="paint19_linear_261_190" x1="32" y1="256" x2="32" y2="-2.47285e-06" gradientUnits="userSpaceOnUse">
<stop stop-color="#8A11C6"/>
<stop offset="0.549268" stop-color="#3CA798"/>
<stop offset="1" stop-color="#3CA798" stop-opacity="0"/>
</linearGradient>
<linearGradient id="paint20_linear_261_190" x1="2336" y1="320" x2="2336" y2="32" gradientUnits="userSpaceOnUse">
<stop stop-color="#8A11C6"/>
<stop offset="0.549268" stop-color="#3CA798"/>
<stop offset="1" stop-color="#3CA798" stop-opacity="0"/>
</linearGradient>
<linearGradient id="paint21_linear_261_190" x1="1952" y1="320" x2="1952" y2="32" gradientUnits="userSpaceOnUse">
<stop stop-color="#8A11C6"/>
<stop offset="0.549268" stop-color="#3CA798"/>
<stop offset="1" stop-color="#3CA798" stop-opacity="0"/>
</linearGradient>
<linearGradient id="paint22_linear_261_190" x1="1568" y1="320" x2="1568" y2="32" gradientUnits="userSpaceOnUse">
<stop stop-color="#8A11C6"/>
<stop offset="0.549268" stop-color="#3CA798"/>
<stop offset="1" stop-color="#3CA798" stop-opacity="0"/>
</linearGradient>
<linearGradient id="paint23_linear_261_190" x1="1184" y1="320" x2="1184" y2="32" gradientUnits="userSpaceOnUse">
<stop stop-color="#8A11C6"/>
<stop offset="0.549268" stop-color="#3CA798"/>
<stop offset="1" stop-color="#3CA798" stop-opacity="0"/>
</linearGradient>
<linearGradient id="paint24_linear_261_190" x1="800" y1="320" x2="800" y2="32" gradientUnits="userSpaceOnUse">
<stop stop-color="#8A11C6"/>
<stop offset="0.549268" stop-color="#3CA798"/>
<stop offset="1" stop-color="#3CA798" stop-opacity="0"/>
</linearGradient>
<linearGradient id="paint25_linear_261_190" x1="416" y1="320" x2="416" y2="32" gradientUnits="userSpaceOnUse">
<stop stop-color="#8A11C6"/>
<stop offset="0.549268" stop-color="#3CA798"/>
<stop offset="1" stop-color="#3CA798" stop-opacity="0"/>
</linearGradient>
<linearGradient id="paint26_linear_261_190" x1="32" y1="320" x2="32" y2="32" gradientUnits="userSpaceOnUse">
<stop stop-color="#8A11C6"/>
<stop offset="0.549268" stop-color="#3CA798"/>
<stop offset="1" stop-color="#3CA798" stop-opacity="0"/>
</linearGradient>
<linearGradient id="paint27_linear_261_190" x1="32" y1="288" x2="32" y2="-2.78196e-06" gradientUnits="userSpaceOnUse">
<stop stop-color="#8A11C6"/>
<stop offset="0.549268" stop-color="#3CA798"/>
<stop offset="1" stop-color="#3CA798" stop-opacity="0"/>
</linearGradient>
<linearGradient id="paint28_linear_261_190" x1="32" y1="288" x2="32" y2="-2.78196e-06" gradientUnits="userSpaceOnUse">
<stop stop-color="#8A11C6"/>
<stop offset="0.549268" stop-color="#3CA798"/>
<stop offset="1" stop-color="#3CA798" stop-opacity="0"/>
</linearGradient>
<linearGradient id="paint29_linear_261_190" x1="32" y1="288" x2="32" y2="-2.78196e-06" gradientUnits="userSpaceOnUse">
<stop stop-color="#8A11C6"/>
<stop offset="0.549268" stop-color="#3CA798"/>
<stop offset="1" stop-color="#3CA798" stop-opacity="0"/>
</linearGradient>
<linearGradient id="paint30_linear_261_190" x1="32" y1="288" x2="32" y2="-2.78196e-06" gradientUnits="userSpaceOnUse">
<stop stop-color="#8A11C6"/>
<stop offset="0.549268" stop-color="#3CA798"/>
<stop offset="1" stop-color="#3CA798" stop-opacity="0"/>
</linearGradient>
<linearGradient id="paint31_linear_261_190" x1="32" y1="288" x2="32" y2="-2.78196e-06" gradientUnits="userSpaceOnUse">
<stop stop-color="#8A11C6"/>
<stop offset="0.549268" stop-color="#3CA798"/>
<stop offset="1" stop-color="#3CA798" stop-opacity="0"/>
</linearGradient>
<linearGradient id="paint32_linear_261_190" x1="32" y1="288" x2="32" y2="-2.78196e-06" gradientUnits="userSpaceOnUse">
<stop stop-color="#8A11C6"/>
<stop offset="0.549268" stop-color="#3CA798"/>
<stop offset="1" stop-color="#3CA798" stop-opacity="0"/>
</linearGradient>
<linearGradient id="paint33_linear_261_190" x1="32" y1="288" x2="32" y2="-2.78196e-06" gradientUnits="userSpaceOnUse">
<stop stop-color="#8A11C6"/>
<stop offset="0.549268" stop-color="#3CA798"/>
<stop offset="1" stop-color="#3CA798" stop-opacity="0"/>
</linearGradient>
<linearGradient id="paint34_linear_261_190" x1="2400" y1="320" x2="2400" y2="-3.09106e-06" gradientUnits="userSpaceOnUse">
<stop stop-color="#8A11C6"/>
<stop offset="0.549268" stop-color="#3CA798"/>
<stop offset="1" stop-color="#3CA798" stop-opacity="0"/>
</linearGradient>
<linearGradient id="paint35_linear_261_190" x1="2016" y1="320" x2="2016" y2="-3.09106e-06" gradientUnits="userSpaceOnUse">
<stop stop-color="#8A11C6"/>
<stop offset="0.549268" stop-color="#3CA798"/>
<stop offset="1" stop-color="#3CA798" stop-opacity="0"/>
</linearGradient>
<linearGradient id="paint36_linear_261_190" x1="1632" y1="320" x2="1632" y2="-3.09106e-06" gradientUnits="userSpaceOnUse">
<stop stop-color="#8A11C6"/>
<stop offset="0.549268" stop-color="#3CA798"/>
<stop offset="1" stop-color="#3CA798" stop-opacity="0"/>
</linearGradient>
<linearGradient id="paint37_linear_261_190" x1="1248" y1="320" x2="1248" y2="-3.09106e-06" gradientUnits="userSpaceOnUse">
<stop stop-color="#8A11C6"/>
<stop offset="0.549268" stop-color="#3CA798"/>
<stop offset="1" stop-color="#3CA798" stop-opacity="0"/>
</linearGradient>
<linearGradient id="paint38_linear_261_190" x1="864" y1="320" x2="864" y2="-3.09106e-06" gradientUnits="userSpaceOnUse">
<stop stop-color="#8A11C6"/>
<stop offset="0.549268" stop-color="#3CA798"/>
<stop offset="1" stop-color="#3CA798" stop-opacity="0"/>
</linearGradient>
<linearGradient id="paint39_linear_261_190" x1="480" y1="320" x2="480" y2="-3.09106e-06" gradientUnits="userSpaceOnUse">
<stop stop-color="#8A11C6"/>
<stop offset="0.549268" stop-color="#3CA798"/>
<stop offset="1" stop-color="#3CA798" stop-opacity="0"/>
</linearGradient>
<linearGradient id="paint40_linear_261_190" x1="96" y1="320" x2="96" y2="-3.09106e-06" gradientUnits="userSpaceOnUse">
<stop stop-color="#8A11C6"/>
<stop offset="0.549268" stop-color="#3CA798"/>
<stop offset="1" stop-color="#3CA798" stop-opacity="0"/>
</linearGradient>
</defs>
</svg>
