<svg width="158" height="40" viewBox="0 0 158 40" fill="none" xmlns="http://www.w3.org/2000/svg">
<g clip-path="url(#clip0_160_146)">
<path d="M21.6 12.9672L14.4739 30.6937H23.0429L26.0431 39.274H0.0595703L16.203 0.649562H27.4383L43.5292 39.274H32.096L21.6 12.9672ZM139.858 21.7887L139.908 21.5928C140.006 21.2084 140.125 20.8621 140.256 20.5636C140.733 19.5009 141.358 18.7009 142.119 18.1875C142.884 17.6717 143.738 17.409 144.654 17.409C145.455 17.409 146.228 17.6143 146.953 18.0131C147.678 18.4143 148.296 19.0424 148.792 19.8806C149.076 20.3654 149.276 20.9457 149.383 21.6048L149.417 21.7887H139.858ZM156.815 18.1063C156.44 17.2585 155.999 16.4705 155.496 15.7517C154.993 15.0305 154.423 14.3761 153.795 13.7911C152.538 12.6257 151.098 11.7278 149.512 11.126C147.928 10.5242 146.257 10.2185 144.542 10.2185C142.026 10.2185 139.679 10.8203 137.564 12.0072C135.451 13.1917 133.734 14.8943 132.458 17.0675C131.182 19.2382 130.533 21.8412 130.533 24.8024C130.533 27.1427 130.96 29.2633 131.797 31.1045C132.634 32.9481 133.807 34.5194 135.284 35.7779C136.76 37.0388 138.491 38.0131 140.426 38.6699C142.362 39.329 144.494 39.6633 146.765 39.6633C148.408 39.6633 150.042 39.4794 151.618 39.1117C153.159 38.7534 154.649 38.2114 156.051 37.5021V29.9463C154.613 30.6006 153.225 31.1212 151.918 31.4914C150.54 31.883 149.107 32.0836 147.652 32.0836C146.083 32.0836 144.687 31.8161 143.504 31.2908C142.317 30.7606 141.356 29.9463 140.657 28.8669C140.445 28.5397 140.259 28.1648 140.101 27.7517L140.02 27.5343H157.728C157.761 27.0448 157.804 26.5075 157.857 25.9009C157.912 25.28 157.94 24.6448 157.94 24.0215C157.94 21.7934 157.561 19.8042 156.815 18.1063ZM118.251 28.6114C117.957 29.1033 117.616 29.5379 117.23 29.9176C116.844 30.2925 116.412 30.6102 115.94 30.8681C114.993 31.3767 113.977 31.637 112.918 31.637C112.303 31.637 111.673 31.5558 111.046 31.3958L110.927 31.3648V18.6125L111.048 18.5839C111.721 18.4311 112.441 18.3546 113.195 18.3546C114.254 18.3546 115.241 18.5839 116.131 19.04C117.025 19.4961 117.755 20.2125 118.308 21.163C118.854 22.1111 119.133 23.3361 119.133 24.8024C119.133 26.3451 118.835 27.6275 118.251 28.6114ZM127.359 18.2734C126.574 16.4681 125.494 14.9517 124.146 13.7672C122.799 12.5827 121.294 11.6943 119.672 11.1284C118.048 10.56 116.374 10.2734 114.697 10.2734C113.417 10.2734 112.215 10.4072 111.122 10.6675L110.927 10.7152V0.224487H101.299V37.44C103.028 38.2257 104.838 38.8155 106.672 39.1928C108.544 39.5797 110.607 39.7755 112.808 39.7755C114.778 39.7755 116.734 39.4508 118.618 38.8108C120.497 38.1708 122.207 37.2084 123.705 35.9475C125.198 34.689 126.393 33.1057 127.247 31.2454C128.103 29.3827 128.539 27.1785 128.539 24.6902C128.539 22.24 128.141 20.0788 127.359 18.2734ZM89.1239 28.6543C88.8854 29.1463 88.6111 29.5809 88.2987 29.9511C87.9863 30.3188 87.6405 30.6221 87.2589 30.8633C86.4957 31.3385 85.6443 31.5821 84.7285 31.5821C83.8151 31.5821 82.9637 31.3385 82.2005 30.8633C81.4349 30.3833 80.8101 29.643 80.3355 28.6543C79.8633 27.6752 79.6272 26.4167 79.6272 24.9122C79.6272 23.3743 79.8633 22.1063 80.3355 21.1439C80.8101 20.1743 81.4349 19.4412 82.2005 18.9636C82.9637 18.4884 83.8151 18.2448 84.7285 18.2448C85.6443 18.2448 86.4933 18.4884 87.2589 18.9636C88.022 19.4412 88.6493 20.1743 89.1239 21.1439C89.5937 22.1087 89.8346 23.3767 89.8346 24.9122C89.8346 26.4143 89.5937 27.6728 89.1239 28.6543ZM97.2612 16.8167C95.9495 14.6269 94.1775 12.9457 91.9905 11.8137C90.8935 11.2478 89.7368 10.8227 88.5253 10.5361C87.3113 10.252 86.045 10.1063 84.7285 10.1063C82.1027 10.1063 79.6582 10.6818 77.4688 11.8137C75.2819 12.9457 73.5004 14.6269 72.1696 16.8191C70.8388 19.0066 70.1663 21.729 70.1663 24.9122C70.1663 28.0955 70.8388 30.8203 72.1696 33.0078C73.5004 35.1976 75.2843 36.8908 77.4688 38.0418C79.6582 39.1928 82.1003 39.7755 84.7285 39.7755C87.3209 39.7755 89.7535 39.1928 91.9619 38.0418C94.1656 36.8908 95.9495 35.1976 97.2612 33.0102C98.5729 30.8203 99.2383 28.0955 99.2383 24.9122C99.2383 21.729 98.5729 19.0066 97.2612 16.8167ZM58.5327 31.3146L58.4111 31.3457C57.7337 31.5033 57.0326 31.5821 56.3171 31.5821C55.2964 31.5821 54.3186 31.3409 53.4123 30.8681C52.4989 30.3928 51.7572 29.6597 51.2063 28.6925C50.6601 27.7254 50.3811 26.474 50.3811 24.9696C50.3811 23.4293 50.6482 22.1493 51.1776 21.1654C51.7095 20.1743 52.4536 19.4412 53.3884 18.9851C54.3114 18.529 55.3536 18.2997 56.4864 18.2997C57.1423 18.2997 57.791 18.3761 58.4111 18.5266L58.5327 18.5576V31.3146ZM58.5327 0.224487V10.517L58.3443 10.4812C57.438 10.3069 56.4936 10.2185 55.542 10.2185C53.7176 10.2185 51.9003 10.5314 50.1497 11.1546C48.3992 11.7755 46.8204 12.7284 45.4515 13.9869C44.0873 15.2478 42.9664 16.8119 42.1293 18.6388C41.2898 20.4609 40.8653 22.6102 40.8653 25.0245C40.8653 27.5845 41.3256 29.8245 42.2366 31.6848C43.1477 33.5475 44.3592 35.0925 45.8331 36.2794C47.3117 37.4663 48.9931 38.3546 50.8366 38.9206C52.6849 39.4866 54.5666 39.7755 56.4292 39.7755C58.702 39.7755 60.8031 39.5702 62.6753 39.1666C64.5093 38.7702 66.3361 38.1708 68.1033 37.3851V0.224487H58.5327Z" fill="white" fill-opacity="0.25"/>
</g>
<defs>
<clipPath id="clip0_160_146">
<rect width="158" height="40" fill="white"/>
</clipPath>
</defs>
</svg>
