<svg width="133" height="40" viewBox="0 0 133 40" fill="none" xmlns="http://www.w3.org/2000/svg">
<g clip-path="url(#clip0_160_137)">
<path d="M82.4922 31.2492C74.7726 36.919 63.5835 39.944 53.9499 39.944C40.442 39.944 28.2814 34.9657 19.0815 26.6858C18.3587 26.0347 19.0063 25.1473 19.8737 25.6544C29.8022 31.4106 42.0784 34.8735 54.7594 34.8735C63.3117 34.8735 72.7198 33.1103 81.3704 29.4515C82.6773 28.8983 83.7702 30.3043 82.4922 31.2492Z" fill="white" fill-opacity="0.25"/>
<path d="M85.7016 27.5904C84.7186 26.3343 79.1789 26.9969 76.6925 27.2908C75.935 27.383 75.8193 26.7261 76.5016 26.2536C80.9137 23.1594 88.1534 24.0525 88.9976 25.0897C89.8418 26.1326 88.7779 33.3638 84.6318 36.8152C83.9958 37.3453 83.3886 37.063 83.6719 36.3601C84.6029 34.0438 86.6904 28.8522 85.7016 27.5904Z" fill="white" fill-opacity="0.25"/>
<path d="M76.866 4.41009V1.40236C76.866 0.947167 77.2129 0.641785 77.6293 0.641785H91.143C91.5766 0.641785 91.9236 0.95293 91.9236 1.40236V3.97795C91.9178 4.41009 91.5535 4.97476 90.9059 5.86787L83.9033 15.8303C86.5054 15.7669 89.2521 16.1529 91.6113 17.4782C92.1433 17.7778 92.2879 18.2157 92.3284 18.6479V21.8573C92.3284 22.2952 91.8426 22.808 91.3338 22.5429C87.1762 20.3707 81.6539 20.1344 77.0568 22.566C76.5884 22.8195 76.0969 22.3125 76.0969 21.8745V18.8265C76.0969 18.3367 76.1027 17.5012 76.5942 16.7579L84.707 5.16491H77.6466C77.2129 5.16491 76.866 4.85953 76.866 4.41009Z" fill="white" fill-opacity="0.25"/>
<path d="M27.5702 23.1767H23.4589C23.0657 23.1479 22.7534 22.8541 22.7245 22.4796V1.45423C22.7245 1.0336 23.0772 0.699408 23.5167 0.699408H27.3505C27.7495 0.716682 28.0675 1.02208 28.0964 1.40236V4.15081H28.1716C29.172 1.49455 31.0513 0.255737 33.584 0.255737C36.1572 0.255737 37.7647 1.49455 38.9212 4.15081C39.9158 1.49455 42.1768 0.255737 44.5996 0.255737C46.3228 0.255737 48.2079 0.964456 49.3586 2.55475C50.6597 4.32367 50.3937 6.8935 50.3937 9.14642L50.3879 22.4162C50.3879 22.8368 50.0352 23.1767 49.5957 23.1767H45.4901C45.0796 23.1479 44.75 22.8195 44.75 22.4162V11.2726C44.75 10.3852 44.8309 8.17265 44.6343 7.3314C44.3279 5.91973 43.4085 5.52215 42.2173 5.52215C41.2227 5.52215 40.1818 6.18478 39.7597 7.24498C39.3376 8.30517 39.3781 10.0798 39.3781 11.2726V22.4162C39.3781 22.8368 39.0253 23.1767 38.5859 23.1767H34.4803C34.0639 23.1479 33.7401 22.8195 33.7401 22.4162L33.7343 11.2726C33.7343 8.92746 34.1218 5.47606 31.2016 5.47606C28.2468 5.47606 28.3624 8.84103 28.3624 11.2726V22.4162C28.3624 22.8368 28.0097 23.1767 27.5702 23.1767Z" fill="white" fill-opacity="0.25"/>
<path d="M103.558 0.255737C109.658 0.255737 112.96 5.47606 112.96 12.1138C112.96 18.5269 109.311 23.6147 103.558 23.6147C97.5672 23.6147 94.3059 18.3943 94.3059 11.8891C94.3059 5.34353 97.6077 0.255737 103.558 0.255737ZM103.593 4.54839C100.563 4.54839 100.372 8.66241 100.372 11.2265C100.372 13.7963 100.331 19.2817 103.558 19.2817C106.744 19.2817 106.894 14.8565 106.894 12.1599C106.894 10.3852 106.819 8.26484 106.281 6.58235C105.819 5.11882 104.899 4.54839 103.593 4.54839Z" fill="white" fill-opacity="0.25"/>
<path d="M120.871 23.1767H116.777C116.366 23.1479 116.037 22.8195 116.037 22.4162L116.031 1.38508C116.065 0.999027 116.407 0.699408 116.823 0.699408H120.634C120.992 0.716682 121.287 0.958696 121.368 1.28713V4.50229H121.443C122.594 1.62708 124.207 0.255737 127.046 0.255737C128.891 0.255737 130.689 0.918362 131.846 2.73337C132.921 4.41586 132.921 7.24498 132.921 9.27894V22.5141C132.875 22.8829 132.534 23.1767 132.129 23.1767H128.006C127.63 23.1479 127.318 22.8714 127.278 22.5141V11.094C127.278 8.79494 127.544 5.42996 124.704 5.42996C123.704 5.42996 122.785 6.09835 122.328 7.11245C121.75 8.39737 121.674 9.67652 121.674 11.094V22.4162C121.669 22.8368 121.31 23.1767 120.871 23.1767Z" fill="white" fill-opacity="0.25"/>
<path d="M66.0932 13.1337V12.2464C63.121 12.2464 59.9811 12.8802 59.9811 16.3719C59.9811 18.1408 60.9005 19.3393 62.4791 19.3393C63.6356 19.3393 64.6707 18.6306 65.3241 17.4782C66.1337 16.0608 66.0932 14.7297 66.0932 13.1337ZM70.2392 23.1191C69.9675 23.3611 69.5742 23.3784 69.2678 23.2171C67.9031 22.0878 67.6602 21.5634 66.9085 20.4859C64.6534 22.7792 63.0574 23.4649 60.1314 23.4649C56.6735 23.4649 53.9789 21.3387 53.9789 17.0806C53.9789 13.756 55.7888 11.4915 58.362 10.3852C60.594 9.40571 63.7108 9.23285 66.0932 8.96204V8.43194C66.0932 7.45817 66.1684 6.30578 65.5959 5.46454C65.0928 4.70973 64.1329 4.39858 63.2887 4.39858C61.7216 4.39858 60.3223 5.19949 59.9811 6.85893C59.9117 7.2277 59.6399 7.5907 59.2699 7.60799L55.2799 7.1816C54.9446 7.1067 54.5745 6.83588 54.667 6.32307C55.5864 1.50609 59.9522 0.0540771 63.8612 0.0540771C65.8619 0.0540771 68.4756 0.584176 70.0542 2.0938C72.0549 3.95491 71.8641 6.43831 71.8641 9.14066V15.5249C71.8641 17.4436 72.6621 18.2849 73.4138 19.322C73.6798 19.6908 73.7376 20.1345 73.4023 20.411C72.5638 21.1082 71.0719 22.4047 70.2508 23.1307L70.2392 23.1191Z" fill="white" fill-opacity="0.25"/>
<path d="M12.1946 13.1337V12.2464C9.22243 12.2464 6.08254 12.8802 6.08254 16.3719C6.08254 18.1408 7.00196 19.3393 8.58058 19.3393C9.73707 19.3393 10.7721 18.6306 11.4256 17.4782C12.2351 16.0608 12.1946 14.7297 12.1946 13.1337ZM16.3407 23.1191C16.0689 23.3611 15.6757 23.3784 15.3692 23.2171C14.0046 22.0878 13.7617 21.5634 13.01 20.4859C10.7548 22.7792 9.15883 23.4649 6.23289 23.4649C2.77496 23.4649 0.0803223 21.3387 0.0803223 17.0806C0.0803223 13.756 1.89024 11.4915 4.46345 10.3852C6.69549 9.40571 9.81225 9.23285 12.1946 8.96204V8.43194C12.1946 7.45817 12.2698 6.30578 11.6973 5.46454C11.1943 4.70973 10.2344 4.39858 9.39013 4.39858C7.82307 4.39858 6.42371 5.19949 6.08254 6.85893C6.01315 7.2277 5.74138 7.5907 5.3713 7.60799L1.38138 7.1816C1.046 7.1067 0.675917 6.83588 0.768437 6.32307C1.68785 1.50609 6.05363 0.0540771 9.96259 0.0540771C11.9633 0.0540771 14.577 0.584176 16.1556 2.0938C18.1564 3.95491 17.9656 6.43831 17.9656 9.14066V15.5249C17.9656 17.4436 18.7635 18.2849 19.5153 19.322C19.7813 19.6908 19.8391 20.1345 19.5037 20.411C18.6652 21.1082 17.1734 22.4047 16.3522 23.1307L16.3407 23.1191Z" fill="white" fill-opacity="0.25"/>
</g>
<defs>
<clipPath id="clip0_160_137">
<rect width="133" height="40" fill="white"/>
</clipPath>
</defs>
</svg>
