<svg width="207" height="40" viewBox="0 0 207 40" fill="none" xmlns="http://www.w3.org/2000/svg">
<g clip-path="url(#clip0_160_155)">
<path d="M16.196 6.26606C13.7589 6.26606 13.0542 7.34527 13.0542 9.72558V13.6743H19.5548L18.9033 20.0537H13.0568V39.4139H5.25554V20.0537H0V13.6743H5.25554V9.834C5.25554 3.3991 7.85427 9.99129e-05 15.1049 9.99129e-05C16.6243 -0.00343021 18.1426 0.0865859 19.6508 0.2699V6.27363L16.196 6.26606Z" fill="white" fill-opacity="0.25"/>
<path d="M20.0953 25.7322C20.0953 18.5408 23.5073 13.1246 30.6569 13.1246C34.5563 13.1246 36.9378 15.1267 38.0768 17.6129V13.6743H45.5497V39.4139H38.0768V35.5207C36.9934 38.0095 34.5563 39.9561 30.6569 39.9561C23.5073 39.9561 20.0953 34.5474 20.0953 27.3485V25.7322ZM27.894 27.4645C27.894 31.3022 29.3007 33.8439 32.9299 33.8439C36.1271 33.8439 37.751 31.5191 37.751 27.8427V25.2582C37.751 21.5818 36.1271 19.257 32.9299 19.257C29.3007 19.257 27.894 21.7986 27.894 25.6364V27.4645Z" fill="white" fill-opacity="0.25"/>
<path d="M61.7987 13.1321C64.8293 13.1321 67.7008 13.7826 69.2716 14.8618L67.5391 20.3789C65.9142 19.6063 64.1388 19.1999 62.3392 19.1888C58.114 19.1888 56.278 21.622 56.278 25.7876V27.3005C56.278 31.466 58.1191 33.8993 62.3392 33.8993C64.1388 33.8879 65.9142 33.4817 67.5391 32.7091L69.2716 38.2237C67.7008 39.3054 64.8318 39.956 61.7987 39.956C52.6438 39.956 48.4742 35.034 48.4742 27.1391V25.9489C48.4742 18.0541 52.6438 13.1321 61.7987 13.1321Z" fill="white" fill-opacity="0.25"/>
<path d="M70.2994 27.5274V25.2581C70.2994 17.9583 74.469 13.1548 82.9749 13.1548C90.9908 13.1548 94.5113 18.0213 94.5113 25.1597V29.2698H78.0956C78.2598 32.7848 79.8306 34.3532 84.1568 34.3532C87.0838 34.3532 90.17 33.7581 92.4454 32.7848L93.8723 38.1178C91.8141 39.202 87.5889 40.0114 83.8537 40.0114C73.9816 40.0089 70.2994 35.092 70.2994 27.5274ZM78.0981 24.1738H87.5233V23.5258C87.5233 20.7143 86.3868 18.4827 82.9774 18.4827C79.4543 18.4853 78.0981 20.7042 78.0981 24.1637V24.1738Z" fill="white" fill-opacity="0.25"/>
<path d="M123.421 27.356C123.421 34.5474 119.956 39.9636 112.813 39.9636C108.914 39.9636 106.207 38.017 105.123 35.5283V39.4215H97.759V0.748994L105.558 0.0429688V17.2397C106.694 14.9703 109.187 13.1296 112.816 13.1296C119.966 13.1296 123.423 18.5383 123.423 25.7372L123.421 27.356ZM115.622 25.5708C115.622 21.9474 114.215 19.2443 110.477 19.2443C107.28 19.2443 105.548 21.5137 105.548 25.1926V27.8956C105.548 31.572 107.28 33.8439 110.477 33.8439C114.215 33.8439 115.622 31.1408 115.622 27.5174V25.5708Z" fill="white" fill-opacity="0.25"/>
<path d="M126.029 27.192V25.896C126.029 18.4853 130.255 13.1321 138.866 13.1321C147.478 13.1321 151.706 18.4853 151.706 25.896V27.192C151.706 34.6003 147.481 39.956 138.869 39.956C130.257 39.956 126.029 34.6003 126.029 27.192ZM143.905 25.3539C143.905 21.9473 142.496 19.2442 138.854 19.2442C135.212 19.2442 133.816 21.9473 133.816 25.3539V27.7342C133.816 31.1407 135.225 33.8438 138.854 33.8438C142.483 33.8438 143.905 31.1407 143.905 27.7342V25.3539Z" fill="white" fill-opacity="0.25"/>
<path d="M154.3 27.192V25.896C154.3 18.4853 158.525 13.1321 167.137 13.1321C175.749 13.1321 179.974 18.4853 179.974 25.896V27.192C179.974 34.6003 175.749 39.956 167.137 39.956C158.525 39.956 154.3 34.6003 154.3 27.192ZM172.175 25.3539C172.175 21.9473 170.766 19.2442 167.137 19.2442C163.508 19.2442 162.101 21.9473 162.101 25.3539V27.7342C162.101 31.1407 163.508 33.8438 167.137 33.8438C170.766 33.8438 172.175 31.1407 172.175 27.7342V25.3539Z" fill="white" fill-opacity="0.25"/>
<path d="M190.697 25.949L198.387 13.6743H206.673L198.604 26.3827L206.999 39.4139H198.713L190.697 26.8063V39.4139H182.896V0.748994L190.697 0.0429688V25.949Z" fill="white" fill-opacity="0.25"/>
</g>
<defs>
<clipPath id="clip0_160_155">
<rect width="207" height="40" fill="white"/>
</clipPath>
</defs>
</svg>
