<svg width="118" height="40" viewBox="0 0 118 40" fill="none" xmlns="http://www.w3.org/2000/svg">
<path d="M50.2151 20.513C50.2151 26.0652 45.8812 30.1565 40.5625 30.1565C35.2438 30.1565 30.9099 26.0652 30.9099 20.513C30.9099 14.9217 35.2438 10.8695 40.5625 10.8695C45.8812 10.8695 50.2151 14.9217 50.2151 20.513ZM45.9896 20.513C45.9896 17.0434 43.4778 14.6695 40.5625 14.6695C37.6472 14.6695 35.1354 17.0434 35.1354 20.513C35.1354 23.9478 37.6472 26.3565 40.5625 26.3565C43.4778 26.3565 45.9896 23.9434 45.9896 20.513Z" fill="white" fill-opacity="0.25"/>
<path d="M71.0385 20.513C71.0385 26.0652 66.7046 30.1565 61.386 30.1565C56.0673 30.1565 51.7334 26.0652 51.7334 20.513C51.7334 14.926 56.0673 10.8695 61.386 10.8695C66.7046 10.8695 71.0385 14.9217 71.0385 20.513ZM66.8131 20.513C66.8131 17.0434 64.3013 14.6695 61.386 14.6695C58.4707 14.6695 55.9588 17.0434 55.9588 20.513C55.9588 23.9478 58.4707 26.3565 61.386 26.3565C64.3013 26.3565 66.8131 23.9434 66.8131 20.513Z" fill="white" fill-opacity="0.25"/>
<path d="M90.9945 11.4521V28.7652C90.9945 35.8869 86.8038 38.7956 81.8495 38.7956C77.1859 38.7956 74.3791 35.6695 73.3205 33.113L76.9994 31.5782C77.6544 33.1478 79.2596 34.9999 81.8452 34.9999C85.0164 34.9999 86.9817 33.0391 86.9817 29.3478V27.9608H86.8342C85.8884 29.1304 84.0664 30.1521 81.7671 30.1521C76.956 30.1521 72.5483 25.9521 72.5483 20.5478C72.5483 15.1043 76.956 10.8695 81.7671 10.8695C84.062 10.8695 85.8841 11.8912 86.8342 13.026H86.9817V11.4565H90.9945V11.4521ZM87.281 20.5478C87.281 17.1521 85.0208 14.6695 82.1445 14.6695C79.2292 14.6695 76.7868 17.1521 76.7868 20.5478C76.7868 23.9086 79.2292 26.3565 82.1445 26.3565C85.0208 26.3565 87.281 23.9086 87.281 20.5478Z" fill="white" fill-opacity="0.25"/>
<path d="M97.6103 1.30432V29.5652H93.489V1.30432H97.6103Z" fill="white" fill-opacity="0.25"/>
<path d="M113.67 23.687L116.95 25.8783C115.892 27.4478 113.341 30.1522 108.933 30.1522C103.467 30.1522 99.3846 25.9174 99.3846 20.5087C99.3846 14.7739 103.502 10.8652 108.46 10.8652C113.454 10.8652 115.896 14.8478 116.694 17L117.132 18.0957L104.27 23.4348C105.254 25.3696 106.786 26.3565 108.933 26.3565C111.085 26.3565 112.577 25.2957 113.67 23.687ZM103.575 20.2174L112.174 16.6391C111.701 15.4348 110.278 14.5957 108.603 14.5957C106.456 14.5957 103.467 16.4957 103.575 20.2174Z" fill="white" fill-opacity="0.25"/>
<path d="M15.3096 18.0043V13.913H29.0661C29.2006 14.6261 29.27 15.4696 29.27 16.3826C29.27 19.4522 28.4327 23.2478 25.7344 25.9522C23.1097 28.6913 19.7563 30.1522 15.3139 30.1522C7.07995 30.1522 0.156128 23.4304 0.156128 15.1783C0.156128 6.92608 7.07995 0.204346 15.3139 0.204346C19.8691 0.204346 23.1141 1.99565 25.5522 4.33043L22.6716 7.21739C20.9233 5.57391 18.5546 4.29565 15.3096 4.29565C9.29679 4.29565 4.59414 9.15217 4.59414 15.1783C4.59414 21.2043 9.29679 26.0609 15.3096 26.0609C19.2097 26.0609 21.4308 24.4913 22.8538 23.0652C24.0077 21.9087 24.7669 20.2565 25.0663 18L15.3096 18.0043Z" fill="white" fill-opacity="0.25"/>
</svg>
