<svg width="167" height="40" viewBox="0 0 167 40" fill="none" xmlns="http://www.w3.org/2000/svg">
<g clip-path="url(#clip0_160_165)">
<path d="M163.824 18.5841C163.503 18.405 163.253 18.1566 163.072 17.8393C162.891 17.522 162.801 17.1665 162.801 16.7725C162.801 16.3732 162.892 16.0152 163.072 15.6979C163.253 15.3806 163.503 15.1327 163.824 14.9531C164.145 14.7741 164.504 14.6844 164.901 14.6844C165.298 14.6844 165.656 14.7742 165.977 14.9532C166.298 15.1323 166.548 15.3807 166.729 15.698C166.91 16.0153 167 16.3734 167 16.7726C167 17.1667 166.91 17.5221 166.729 17.8394C166.548 18.1567 166.298 18.4046 165.977 18.5841C165.656 18.7632 165.298 18.8529 164.901 18.8529C164.504 18.8524 164.145 18.7631 163.824 18.5841ZM165.778 18.2538C166.038 18.1056 166.24 17.902 166.385 17.6437C166.53 17.3853 166.603 17.0926 166.603 16.7648C166.603 16.4376 166.53 16.1442 166.385 15.8859C166.24 15.6275 166.038 15.4256 165.778 15.2794C165.519 15.1338 165.226 15.0607 164.901 15.0607C164.57 15.0607 164.276 15.1337 164.019 15.2793C163.762 15.425 163.561 15.6274 163.416 15.8858C163.27 16.1441 163.198 16.4374 163.198 16.7647C163.198 17.0924 163.27 17.3852 163.416 17.6436C163.561 17.9019 163.762 18.1055 164.019 18.2537C164.276 18.4019 164.569 18.4761 164.901 18.4761C165.226 18.4766 165.519 18.4025 165.778 18.2538ZM164.107 15.7517L165.03 15.7517C165.29 15.7517 165.487 15.8029 165.622 15.9052C165.756 16.0075 165.824 16.151 165.824 16.3352C165.824 16.4683 165.781 16.5821 165.694 16.6766C165.607 16.7715 165.481 16.8368 165.312 16.8723L165.923 17.6703L165.35 17.6703L164.786 16.9255L164.579 16.9255V17.6702L164.106 17.6702V15.7517L164.107 15.7517ZM165.336 16.3425C165.336 16.1891 165.214 16.1124 164.969 16.1124L164.58 16.1123V16.5575L164.962 16.5575C165.211 16.5575 165.336 16.4861 165.336 16.3425Z" fill="white" fill-opacity="0.25"/>
<path d="M64.6415 20.5358C63.5114 19.3885 61.8743 18.5387 59.7296 17.988L57.6884 17.4373C56.3508 17.0932 55.3535 16.7778 54.6963 16.4902C54.039 16.2036 53.6008 15.905 53.3817 15.5949C53.1621 15.2849 53.0534 14.901 53.0534 14.4414C53.0534 13.6842 53.4338 13.0416 54.1951 12.5135C54.9558 11.9859 56.0628 11.7219 57.5161 11.7219C60.3947 11.7221 64.0231 13.4044 65.0571 14.8006V9.41569C64.2496 8.79602 63.1546 8.2621 61.7707 7.81444C60.3869 7.36678 58.8995 7.14292 57.3086 7.14287C55.3247 7.14279 53.6187 7.48157 52.1891 8.15816C50.759 8.83527 49.6693 9.74194 48.9201 10.8777C48.1703 12.0139 47.7957 13.2359 47.7957 14.5442C47.7957 16.4952 48.3663 18.0216 49.508 19.1234C50.6497 20.2252 52.3152 21.0634 54.5066 21.6366L56.5478 22.1873C57.8392 22.5314 58.8075 22.8646 59.4537 23.1857C60.0989 23.5073 60.5261 23.8398 60.7336 24.1839C60.9411 24.528 61.0452 24.9531 61.0452 25.4577C61.0452 26.3069 60.6932 26.9783 59.9902 27.4719C59.2867 27.9655 58.2658 28.2123 56.9287 28.2122C53.9108 28.2121 49.3383 26.2192 47.7962 23.7233V29.5542C48.6033 30.3804 49.8716 31.1209 51.6012 31.7751C53.3308 32.4293 55.187 32.7562 57.1704 32.7563C59.0382 32.7564 60.6643 32.4233 62.0476 31.7582C63.4315 31.0926 64.4918 30.1807 65.23 29.0215C65.9676 27.8628 66.337 26.5717 66.337 25.1484C66.3364 23.2215 65.7711 21.6841 64.6415 20.5358Z" fill="white" fill-opacity="0.25"/>
<path d="M86.5127 18.6164C85.8266 17.2004 84.8751 16.085 83.6593 15.2708C82.443 14.4566 81.0765 14.0492 79.5596 14.0491C76.7178 14.049 74.5263 15.4179 72.9854 18.1553V14.3182L67.8922 14.318V37.9784L72.9854 37.9786V28.6698C74.5263 31.3602 76.7293 32.7057 79.5954 32.7058C81.1127 32.7059 82.4787 32.3044 83.695 31.5023C84.9108 30.7002 85.856 29.5906 86.5306 28.1746C87.2047 26.7586 87.542 25.1653 87.542 23.3953C87.542 21.6253 87.1989 20.0325 86.5127 18.6164ZM81.2567 27.0418C80.4859 27.9621 79.4745 28.4222 78.2225 28.4222C76.9941 28.4221 75.9045 27.9441 74.9535 26.9882C74.002 26.0323 73.31 24.8234 72.8766 23.3597C73.31 21.8967 74.002 20.6872 74.9535 19.7314C75.9045 18.7755 76.9941 18.2976 78.2225 18.2977C79.4745 18.2977 80.4859 18.77 81.2567 19.7138C82.0269 20.6582 82.4125 21.8855 82.4125 23.3956C82.4125 24.9058 82.0274 26.121 81.2567 27.0418Z" fill="white" fill-opacity="0.25"/>
<path d="M107.46 18.5869C106.617 17.1479 105.443 16.0147 103.939 15.1884C102.433 14.3627 100.717 13.949 98.7913 13.949C96.8647 13.9489 95.1487 14.3619 93.644 15.1881C92.1387 16.0142 90.9708 17.1473 90.1401 18.5863C89.3095 20.0258 88.8939 21.6306 88.8939 23.4006C88.8939 25.1477 89.3095 26.7404 90.1401 28.18C90.9708 29.6196 92.1387 30.7528 93.644 31.5785C95.1487 32.4042 96.8647 32.8179 98.7913 32.818C100.717 32.8181 102.433 32.405 103.939 31.5789C105.443 30.7533 106.617 29.6202 107.46 28.1807C108.303 26.7417 108.724 25.1484 108.724 23.4014C108.724 21.6313 108.303 20.027 107.46 18.5869ZM102.295 27.0829C101.404 28.0508 100.236 28.5344 98.7913 28.5343C97.3701 28.5343 96.2142 28.0563 95.3237 27.1004C94.4326 26.1445 93.9871 24.9115 93.9871 23.4008C93.9871 21.8907 94.4326 20.6519 95.3237 19.6841C96.2142 18.7167 97.3701 18.2326 98.7913 18.2326C100.212 18.2327 101.374 18.7169 102.277 19.6843C103.18 20.6522 103.631 21.8915 103.631 23.4012C103.632 24.8883 103.186 26.1156 102.295 27.0829Z" fill="white" fill-opacity="0.25"/>
<path d="M117.852 27.8286C117.43 27.404 117.22 26.708 117.22 25.7401V18.4827L122.152 18.4829V14.4827L117.22 14.4825V9.59699L117.183 9.59699L108.731 16.1105V18.4824L112.091 18.4825V26.483C112.091 28.5129 112.632 30.0408 113.716 31.0673C114.8 32.0938 116.256 32.6074 118.087 32.6074C118.833 32.6075 120.022 32.482 120.624 32.2933C121.226 32.104 121.887 31.7401 122.2 31.4567V27.7441C120.675 28.9587 118.444 28.4258 117.852 27.8286Z" fill="white" fill-opacity="0.25"/>
<path d="M124.16 11.0112C124.725 11.5419 125.454 11.8076 126.345 11.8076C127.212 11.8077 127.928 11.5421 128.494 11.0113C129.059 10.4801 129.343 9.81391 129.343 9.01125C129.343 8.20912 129.06 7.54188 128.494 7.01111C127.928 6.48034 127.212 6.21468 126.345 6.21465C125.454 6.21462 124.725 6.48023 124.16 7.01095C123.594 7.54168 123.31 8.2089 123.31 9.01103C123.311 9.81369 123.594 10.4799 124.16 11.0112ZM123.78 32.2693L128.91 32.2695V14.4829L123.78 14.4827V32.2693Z" fill="white" fill-opacity="0.25"/>
<path d="M139.015 13.1342C139.121 12.3274 139.304 11.8447 139.684 11.3626C140.105 10.8287 140.682 10.4554 141.577 10.4554C142.082 10.4555 142.91 10.5998 143.373 10.7504C143.961 10.9434 145.08 11.4491 145.369 11.6394L143.526 7.20514C143.141 6.99074 142.624 6.78888 141.974 6.59799C141.324 6.40763 140.639 6.31244 139.917 6.31241C138.064 6.31234 136.603 6.91363 135.532 8.11575C134.462 9.31839 133.926 10.8719 133.926 12.7769V14.4915L130.721 14.4913V18.5271L133.926 18.5272V32.2781L139.015 32.2782V18.5269L143.778 18.5271V14.4913L139.015 14.4911V13.1342L139.015 13.1342Z" fill="white" fill-opacity="0.25"/>
<path d="M145.58 37.9484L151.097 37.9486L161.538 14.492L156.377 14.4918L151.649 25.778L146.886 14.4914L141.22 14.4912L148.907 30.9212L145.58 37.9484Z" fill="white" fill-opacity="0.25"/>
<path d="M20.8896 0.0160961C9.80301 -0.422717 0.458151 8.16862 0.0195685 19.2059C-0.421118 30.2433 8.21065 39.5451 19.2962 39.9839C30.3833 40.4232 39.7255 31.8319 40.1662 20.794C40.6048 9.7567 31.9746 0.453865 20.8896 0.0160961ZM29.3694 29.3143C29.1196 29.7533 28.6331 29.9724 28.1593 29.9067C28.0142 29.8863 27.869 29.8388 27.7334 29.7621C25.0782 28.2573 22.1843 27.2776 19.1326 26.8495C16.0809 26.4214 13.0272 26.5695 10.0581 27.2881C9.41333 27.4436 8.76545 27.0506 8.60926 26.4086C8.45308 25.7672 8.84801 25.1216 9.49221 24.9661C12.7569 24.1766 16.1135 24.0139 19.4665 24.4837C22.8195 24.9535 25.9995 26.0304 28.9213 27.6849C29.4961 28.0122 29.698 28.7397 29.3709 29.3138L29.3694 29.3138L29.3694 29.3143ZM32.0098 24.0645C31.6001 24.8176 30.653 25.0989 29.8963 24.6913C26.7894 23.0184 23.4254 21.9197 19.8983 21.4258C16.3707 20.932 12.8342 21.0655 9.38441 21.8205C9.1972 21.8607 9.01156 21.868 8.83171 21.8424C8.20539 21.7547 7.66952 21.2902 7.52595 20.6378C7.34032 19.8007 7.87303 18.9724 8.71391 18.7877C12.5276 17.9523 16.437 17.8047 20.3332 18.3492C24.2279 18.8942 27.9458 20.1083 31.3798 21.9581C32.1381 22.3657 32.4189 23.3073 32.0098 24.0619V24.0645ZM34.9363 18.1472C34.5508 18.8857 33.7483 19.2677 32.9664 19.1581C32.755 19.1289 32.5478 19.0631 32.3474 18.9608C28.7299 17.087 24.8337 15.8494 20.7665 15.2804C16.6994 14.7119 12.6101 14.8323 8.61452 15.6401C7.57539 15.8503 6.5636 15.1812 6.35219 14.1484C6.14079 13.1139 6.81286 12.1067 7.85042 11.8964C12.2757 11.0025 16.7998 10.8696 21.3008 11.4981C25.8013 12.1272 30.113 13.4984 34.1191 15.5731C35.0594 16.0596 35.4243 17.213 34.9363 18.1488V18.1472Z" fill="white" fill-opacity="0.25"/>
</g>
<defs>
<clipPath id="clip0_160_165">
<rect width="167" height="40" fill="white"/>
</clipPath>
</defs>
</svg>
